<svg width="240" height="278" fill="none" xmlns="http://www.w3.org/2000/svg"><path d="M130.63 110.224c11.22 0 19.278-3.774 26.214-10.71l-5.304-6.12c-5.61 5.304-12.24 8.466-20.502 8.466-16.626 0-27.54-11.832-27.54-30.498 0-18.462 10.914-30.294 27.744-30.294 7.242 0 13.566 2.958 18.054 7.14l5.406-6.12c-5.1-4.896-13.158-9.282-23.562-9.282-22.134 0-37.332 14.994-37.332 38.862 0 23.97 15.402 38.556 36.822 38.556ZM78.594 248h10.914l27.642-74.97h-9.588L93.18 213.728c-3.162 8.772-5.508 15.912-8.67 24.684H84c-3.366-8.772-5.61-15.912-8.67-24.684L60.846 173.03h-9.894L78.594 248ZM6.552 139.184h3.672v-1.512H6.552v-6.576c1.296-.24 2.52-.552 3.528-.888l-1.2-1.224c-1.824.648-5.064 1.248-7.824 1.584.192.336.432.888.48 1.224a47.444 47.444 0 0 0 3.48-.432v6.312H1.08v1.512h3.432c-.816 2.616-2.328 5.688-3.648 7.368.288.408.72 1.08.912 1.56 1.128-1.56 2.328-4.128 3.24-6.6v9.336h1.536v-8.76c.888.888 1.968 2.04 2.472 2.688l.96-1.296c-.576-.504-2.64-2.472-3.432-3.12v-1.176Zm-4.848-6.288c.456 1.296.912 3.048 1.032 4.176l1.368-.456c-.168-1.128-.648-2.808-1.128-4.128l-1.272.408Zm6.744 4.32c.552-1.176 1.152-3.096 1.728-4.608l-1.536-.6c-.264 1.392-.864 3.456-1.344 4.704l1.152.504Zm9.912 6.192h-4.128l.624-.288c-.168-.696-.624-1.728-1.104-2.496h5.208a20.445 20.445 0 0 1-1.176 2.52l.576.264Zm-2.976-12.312h1.968v2.64h-1.968v-2.64Zm-1.272 2.64h-1.896v-2.64h1.896v2.64Zm4.512-2.64h2.04v2.64h-2.04v-2.64Zm4.296 8.232h-5.712v-1.608h4.248v-1.272h-4.248v-1.392h4.968V129.8H10.728v5.256h4.824v1.392h-4.08v1.272h4.08v1.608H9.984v1.296h3.288l-.84.36c.384.72.816 1.704 1.032 2.424H10.44v1.296h5.112v1.632h-4.608v1.344h4.608v3.216h1.656v-3.216h4.776v-1.344h-4.776v-1.632h5.28v-1.296h-3.432c.432-.672.912-1.584 1.416-2.472l-.744-.312h3.192v-1.296Zm9.6-1.68v-3.216h6.072V132.8h-4.464v-3.84H32.4v3.84h-4.392v1.632h2.832v4.968c0 3.384-.36 7.176-3.264 10.248.432.312 1.008.792 1.296 1.152 3.192-3.36 3.648-7.416 3.648-11.376v-.168h3.288c-.144 6.672-.312 9.024-.744 9.6-.192.264-.36.336-.72.312-.384 0-1.272 0-2.256-.072.264.432.432 1.128.456 1.608 1.032.048 2.04.048 2.592 0 .648-.072 1.056-.24 1.44-.768.6-.816.768-3.528.936-11.496.024-.24.024-.792.024-.792H32.52Zm13.848-2.616c-.504 3.072-1.248 5.664-2.4 7.824-1.056-2.184-1.824-4.728-2.328-7.488.024-.096.072-.216.12-.336h4.608Zm3.528 0v-1.656H42.24c.384-1.344.696-2.76.96-4.2l-1.824-.264c-.696 4.104-1.92 8.088-3.816 10.608.432.288 1.224.864 1.536 1.176.552-.792 1.032-1.68 1.488-2.664.6 2.424 1.344 4.608 2.352 6.528-1.44 2.04-3.384 3.624-5.952 4.776.312.36.84 1.152 1.032 1.536 2.448-1.224 4.368-2.76 5.856-4.704 1.296 1.968 2.904 3.552 4.944 4.608.24-.48.816-1.176 1.224-1.512-2.112-.984-3.792-2.616-5.088-4.656 1.536-2.568 2.52-5.712 3.168-9.576h1.776Zm10.272-6.024c-1.344 3.648-3.576 7.224-5.928 9.528.336.408.816 1.32 1.008 1.752.816-.888 1.656-1.872 2.424-2.976v13.464h1.704v-16.128a38.91 38.91 0 0 0 2.472-5.136l-1.68-.504Zm4.368 10.128c-.648 2.832-1.776 5.688-3.288 7.512.432.24 1.2.696 1.536.984 1.464-1.992 2.736-5.016 3.504-8.16l-1.752-.336Zm10.152-3.96c-.192 1.224-.408 2.496-.552 3.36l1.488.288a91.87 91.87 0 0 0 1.056-5.088l-1.224-.288-.288.072h-9.72c.48-1.32.912-2.712 1.272-4.104l-1.752-.384c-.792 3.504-2.184 6.936-3.936 9.144.384.264 1.128.864 1.416 1.128.864-1.128 1.656-2.544 2.328-4.128h3.648v13.488c0 .312-.096.408-.408.408-.312 0-1.344.024-2.472-.024.24.504.528 1.296.624 1.8 1.512 0 2.52-.048 3.168-.36.624-.288.84-.816.84-1.824v-13.488h4.512Zm-2.76 4.296c1.272 2.52 2.472 5.88 2.856 8.064l1.704-.576c-.408-2.184-1.632-5.472-3-8.016l-1.56.528Zm20.592-9.984c-.432 1.128-1.272 2.808-1.872 3.84l1.224.552c.672-.96 1.488-2.472 2.232-3.768l-1.584-.624Zm-7.512 3.696c-.24-.96-.984-2.448-1.728-3.576l-1.296.576c.72 1.128 1.44 2.664 1.68 3.648l1.344-.648Zm5.376 6h-5.208l1.272-.456c-.168-.864-.696-2.208-1.32-3.192l-1.392.48c.552 1.008 1.08 2.304 1.224 3.168h-2.328v1.512h4.392v2.448h-3.792v1.488h3.792v2.832c-1.968.264-3.768.48-5.208.648l.264 1.68c3.048-.408 7.536-1.032 11.712-1.632l-.048-1.584-5.064.672v-2.616h3.936v-1.488H88.68v-2.448h4.44v-1.512h-2.544c.456-.84 1.032-2.088 1.536-3.216l-1.608-.48c-.312.984-.888 2.424-1.368 3.336l1.248.36Zm13.224-3.864h-2.544v-6.24h-1.728v6.24h-5.352V134H90.24v-4.968h-1.488V134h-1.824v-4.968h-1.464V134h-3.72v1.488H93.72V137h5.616v11.64c0 .408-.144.552-.552.552-.384.024-1.704.024-3.144-.024a6.92 6.92 0 0 1 .648 1.68c1.944 0 3.096-.048 3.816-.312.672-.312.96-.816.96-1.896V137h2.544v-1.68Zm-5.424 9c-.264-1.464-1.2-3.696-2.208-5.424l-1.488.528c.984 1.752 1.872 4.032 2.112 5.472l1.584-.576Zm17.856 3.168h-4.944V143h4.944v4.488Zm-1.632-16.2a35.691 35.691 0 0 0 3.72-1.008l-1.464-1.296c-1.848.72-5.208 1.416-8.088 1.8.216.384.456.984.528 1.392a68.369 68.369 0 0 0 3.576-.552v4.056h-4.128v1.68h4.128v4.032h-3.216v9.168h1.632v-1.44h4.944v.888h1.68v-8.616h-3.312v-4.032h3.888v-1.68h-3.888v-4.392Zm12.552 9.168h-5.184v-5.328h5.184v5.328Zm-5.184 7.344v-5.64h5.184v5.64h-5.184Zm8.712-14.4h-1.752v-4.416h-1.776v4.416h-5.184v-4.416h-1.752v4.416h-2.112v1.728h2.112v15.72h1.752v-1.344h5.184v1.248h1.776v-15.624h1.752V133.4Zm12.216 2.688c.408-.96.864-2.496 1.296-3.744l-1.056-.384a33.038 33.038 0 0 1-1.032 3.816l.792.312Zm-4.632-3.816c.408 1.152.696 2.664.744 3.648l.96-.264c-.072-.96-.384-2.472-.816-3.624l-.888.24Zm-.336-1.176h2.592v5.76h-2.592v-5.76Zm6.576 5.76h-2.76v-5.76h2.76v5.76Zm-8.568 7.992c2.76-.144 6.672-.384 10.488-.672l.048-1.44c-1.536.096-3.072.192-4.536.264v-1.776h4.152v-1.416h-4.152v-1.656h4.008V129.8h-9.408v8.352h3.792v1.656h-3.96v1.416h3.96v1.872c-1.704.072-3.24.168-4.488.216l.096 1.536Zm.72 5.976c1.056-1.056 1.416-2.904 1.656-4.68l-1.272-.336c-.192 1.656-.648 3.384-1.584 4.368l1.2.648Zm2.424-4.944c.336 1.344.576 3.048.576 4.176l1.224-.168c0-1.104-.264-2.832-.648-4.128l-1.152.12Zm2.28-.12c.528 1.224 1.032 2.808 1.152 3.864l1.224-.264c-.168-1.056-.696-2.64-1.248-3.84l-1.128.24Zm2.28-.312c.792 1.104 1.632 2.64 1.968 3.648l1.2-.528c-.36-.984-1.224-2.472-2.064-3.576l-1.104.456Zm11.304 2.616h-6.048v-6.168h6.048v6.168Zm2.64-12.264v-1.68h-5.112v-5.16h-1.752v11.28h-3.456v10.56h1.632v-1.128h6.048v1.032h1.68V140.24h-4.152v-4.44h5.112Zm12.72 3.576h-5.04v-5.016h5.04v5.016Zm-5.04 7.344v-5.76h5.04v5.76h-5.04Zm2.016-17.856c-.168 1.128-.6 2.736-.96 3.888h-2.688v17.472h1.632v-1.896h6.672v-15.576h-3.984c.408-1.032.84-2.352 1.248-3.528l-1.92-.36Zm16.392 3.816h-7.176c.408-1.128.744-2.28 1.032-3.456l-1.704-.408c-.768 3.288-2.064 6.6-3.672 8.712.384.24 1.152.72 1.464 1.008.84-1.128 1.584-2.592 2.256-4.2h6.096c-.312 9.552-.672 13.2-1.464 14.04-.24.312-.504.36-.984.36-.552 0-1.992 0-3.552-.144.336.504.552 1.224.6 1.752 1.344.072 2.712.12 3.552.024.816-.072 1.368-.288 1.896-.96.96-1.176 1.272-4.872 1.656-15.816v-.912Zm-3.792 10.8c-.768-1.416-2.424-3.72-3.768-5.424l-1.392.816c1.32 1.728 2.928 4.104 3.648 5.544l1.512-.936Zm15.768-11.784c-.84-.864-2.64-1.92-4.08-2.568l-1.008 1.296c1.464.696 3.216 1.848 4.056 2.688l1.032-1.416Zm-1.176 6.192c-.888-.768-2.688-1.776-4.128-2.376l-1.008 1.32c1.488.672 3.264 1.728 4.104 2.52l1.032-1.464Zm4.872-3.144h8.184v2.04h-8.184v-2.04Zm0-3.336h8.184v2.016h-8.184v-2.016Zm1.032 8.424c.36-.552.696-1.104.984-1.68h7.848v-8.112h-11.52v8.112h1.728c-1.104 1.992-2.712 3.84-4.44 5.136l.192-.48-1.368-1.056c-1.152 2.712-2.736 5.832-3.84 7.656l1.584 1.104c1.032-1.992 2.256-4.512 3.24-6.816.408.336.912.84 1.152 1.104.48-.384.96-.816 1.44-1.272v6.408h1.56v-1.056h7.872v-1.464h-7.872v-5.184h-.36l.72-.864h9.504c-.288 5.136-.6 7.08-1.056 7.608-.192.24-.432.288-.84.288-.384 0-1.416-.024-2.52-.12.24.432.408 1.128.456 1.608 1.128.048 2.232.072 2.856.024.648-.072 1.08-.216 1.488-.72.696-.792 1.032-3.096 1.32-9.432.024-.264.048-.792.048-.792h-10.176Zm2.28 1.848c-.288 1.752-1.368 3.504-3.12 4.44.264.216.672.696.864.96 1.032-.552 1.872-1.368 2.496-2.304.96.792 1.968 1.752 2.544 2.376l.96-.864c-.672-.696-1.872-1.752-2.928-2.568.288-.6.504-1.224.624-1.872l-1.44-.168Zm33.12-10.584-.072 1.68h-5.016c.048-.552.096-1.104.12-1.68h4.968Zm-5.52 4.608c.12-.528.216-1.104.288-1.68h5.112c-.048.624-.072 1.2-.12 1.68h-5.28Zm5.16 1.296c-.12 1.08-.264 1.608-.456 1.824-.168.24-.36.312-.72.288-.36 0-1.2 0-2.16-.096.216.384.384.984.408 1.416 1.008.048 1.944.048 2.496 0 .624-.048 1.056-.216 1.392-.648.6-.744.84-2.952 1.056-9.288.024-.24.024-.744.024-.744h-8.232c-.12 4.656-.48 8.136-3.192 10.08.384.24.84.792 1.056 1.176 1.392-.984 2.28-2.352 2.832-4.008h5.496Zm-17.376-.024c0 1.872.504 2.544 2.472 2.544h4.08c.792 0 1.584-.024 1.968-.144-.048-.384-.144-1.08-.168-1.536-.432.096-1.296.144-1.824.144h-4.08c-.648 0-.816-.264-.816-.984v-4.032h8.016v-1.536h-4.824v-2.496h-1.68v2.496h-4.944v1.536h1.8v4.008Zm10.056 11.784v-2.088h7.104v-1.464h-7.104v-2.064h8.256v-1.512h-18.072v1.512h8.04v2.064h-7.008v1.464h7.008v2.088h-9.648v1.512h21.144v-1.512h-9.72ZM143.045 163.325c-1.15 0-2.055.385-2.715 1.155-.66.77-.99 1.825-.99 3.165 0 1.33.305 2.385.915 3.165.62.77 1.545 1.155 2.775 1.155.47 0 .915-.04 1.335-.12.42-.08.83-.18 1.23-.3v1.17c-.4.15-.815.26-1.245.33-.42.07-.925.105-1.515.105-1.09 0-2-.225-2.73-.675-.73-.45-1.28-1.09-1.65-1.92-.36-.83-.54-1.805-.54-2.925 0-1.08.195-2.03.585-2.85a4.45 4.45 0 0 1 1.755-1.935c.77-.47 1.705-.705 2.805-.705 1.13 0 2.115.21 2.955.63l-.54 1.14c-.33-.15-.7-.285-1.11-.405-.4-.12-.84-.18-1.32-.18ZM157.923 173h-1.35v-4.995h-5.49V173h-1.35v-10.71h1.35v4.53h5.49v-4.53h1.35V173Zm14.073-5.37c0 1.11-.19 2.08-.57 2.91-.37.82-.92 1.46-1.65 1.92-.73.46-1.635.69-2.715.69-1.11 0-2.035-.23-2.775-.69-.73-.46-1.275-1.105-1.635-1.935-.36-.83-.54-1.8-.54-2.91 0-1.1.18-2.06.54-2.88.36-.82.905-1.46 1.635-1.92.74-.46 1.67-.69 2.79-.69 1.07 0 1.97.23 2.7.69.73.45 1.28 1.09 1.65 1.92.38.82.57 1.785.57 2.895Zm-8.46 0c0 1.35.285 2.415.855 3.195.57.77 1.46 1.155 2.67 1.155 1.22 0 2.11-.385 2.67-1.155.56-.78.84-1.845.84-3.195 0-1.35-.28-2.405-.84-3.165-.56-.77-1.445-1.155-2.655-1.155-1.21 0-2.105.385-2.685 1.155-.57.76-.855 1.815-.855 3.165Zm17.223-4.305c-1.15 0-2.055.385-2.715 1.155-.66.77-.99 1.825-.99 3.165 0 1.33.305 2.385.915 3.165.62.77 1.545 1.155 2.775 1.155.47 0 .915-.04 1.335-.12.42-.08.83-.18 1.23-.3v1.17c-.4.15-.815.26-1.245.33-.42.07-.925.105-1.515.105-1.09 0-2-.225-2.73-.675-.73-.45-1.28-1.09-1.65-1.92-.36-.83-.54-1.805-.54-2.925 0-1.08.195-2.03.585-2.85a4.45 4.45 0 0 1 1.755-1.935c.77-.47 1.705-.705 2.805-.705 1.13 0 2.115.21 2.955.63l-.54 1.14c-.33-.15-.7-.285-1.11-.405-.4-.12-.84-.18-1.32-.18Zm15.74 4.305c0 1.11-.19 2.08-.57 2.91-.37.82-.92 1.46-1.65 1.92-.73.46-1.635.69-2.715.69-1.11 0-2.035-.23-2.775-.69-.73-.46-1.275-1.105-1.635-1.935-.36-.83-.54-1.8-.54-2.91 0-1.1.18-2.06.54-2.88.36-.82.905-1.46 1.635-1.92.74-.46 1.67-.69 2.79-.69 1.07 0 1.97.23 2.7.69.73.45 1.28 1.09 1.65 1.92.38.82.57 1.785.57 2.895Zm-8.46 0c0 1.35.285 2.415.855 3.195.57.77 1.46 1.155 2.67 1.155 1.22 0 2.11-.385 2.67-1.155.56-.78.84-1.845.84-3.195 0-1.35-.28-2.405-.84-3.165-.56-.77-1.445-1.155-2.655-1.155-1.21 0-2.105.385-2.685 1.155-.57.76-.855 1.815-.855 3.165Zm12.634 5.37v-10.71h1.35v9.51h4.68v1.2h-6.03Zm16.386 0-1.29-3.315h-4.245L210.249 173h-1.365l4.185-10.755h1.215l4.17 10.755h-1.395Zm-2.895-7.755c-.03-.08-.08-.225-.15-.435-.07-.21-.14-.425-.21-.645-.06-.23-.11-.405-.15-.525a13.635 13.635 0 0 1-.465 1.605l-1.215 3.24h3.39l-1.2-3.24Zm9.89 7.755h-1.35v-9.525h-3.345v-1.185h8.025v1.185h-3.33V173Zm12.73 0h-5.985v-10.71h5.985v1.185h-4.635v3.345h4.365v1.17h-4.365v3.825h4.635V173Z" fill="#fff"/><circle cx="132.5" cy="138.5" r="60" stroke="#C4C4C4"/></svg>