<svg width="240" height="512" viewBox="0 0 240 512" fill="none" xmlns="http://www.w3.org/2000/svg">
<line x1="119.5" y1="266" x2="119.5" y2="512" stroke="white"/>
<path d="M130.63 110.224C141.85 110.224 149.908 106.45 156.844 99.514L151.54 93.394C145.93 98.698 139.3 101.86 131.038 101.86C114.412 101.86 103.498 90.028 103.498 71.362C103.498 52.9 114.412 41.068 131.242 41.068C138.484 41.068 144.808 44.026 149.296 48.208L154.702 42.088C149.602 37.192 141.544 32.806 131.14 32.806C109.006 32.806 93.808 47.8 93.808 71.668C93.808 95.638 109.21 110.224 130.63 110.224Z" fill="white"/>
<path d="M78.594 248H89.508L117.15 173.03H107.562L93.18 213.728C90.018 222.5 87.672 229.64 84.51 238.412H84C80.634 229.64 78.39 222.5 75.33 213.728L60.846 173.03H50.952L78.594 248Z" fill="white"/>
<path d="M6.552 139.184H10.224V137.672H6.552V131.096C7.848 130.856 9.072 130.544 10.08 130.208L8.88 128.984C7.056 129.632 3.816 130.232 1.056 130.568C1.248 130.904 1.488 131.456 1.536 131.792C2.64 131.696 3.84 131.552 5.016 131.36V137.672H1.08V139.184H4.512C3.696 141.8 2.184 144.872 0.864 146.552C1.152 146.96 1.584 147.632 1.776 148.112C2.904 146.552 4.104 143.984 5.016 141.512V150.848H6.552V142.088C7.44 142.976 8.52 144.128 9.024 144.776L9.984 143.48C9.408 142.976 7.344 141.008 6.552 140.36V139.184ZM1.704 132.896C2.16 134.192 2.616 135.944 2.736 137.072L4.104 136.616C3.936 135.488 3.456 133.808 2.976 132.488L1.704 132.896ZM8.448 137.216C9 136.04 9.6 134.12 10.176 132.608L8.64 132.008C8.376 133.4 7.776 135.464 7.296 136.712L8.448 137.216ZM18.36 143.408H14.232L14.856 143.12C14.688 142.424 14.232 141.392 13.752 140.624H18.96C18.648 141.44 18.168 142.472 17.784 143.144L18.36 143.408ZM15.384 131.096H17.352V133.736H15.384V131.096ZM14.112 133.736H12.216V131.096H14.112V133.736ZM18.624 131.096H20.664V133.736H18.624V131.096ZM22.92 139.328H17.208V137.72H21.456V136.448H17.208V135.056H22.176V129.8H10.728V135.056H15.552V136.448H11.472V137.72H15.552V139.328H9.984V140.624H13.272L12.432 140.984C12.816 141.704 13.248 142.688 13.464 143.408H10.44V144.704H15.552V146.336H10.944V147.68H15.552V150.896H17.208V147.68H21.984V146.336H17.208V144.704H22.488V143.408H19.056C19.488 142.736 19.968 141.824 20.472 140.936L19.728 140.624H22.92V139.328ZM32.52 137.648V134.432H38.592V132.8H34.128V128.96H32.4V132.8H28.008V134.432H30.84V139.4C30.84 142.784 30.48 146.576 27.576 149.648C28.008 149.96 28.584 150.44 28.872 150.8C32.064 147.44 32.52 143.384 32.52 139.424V139.256H35.808C35.664 145.928 35.496 148.28 35.064 148.856C34.872 149.12 34.704 149.192 34.344 149.168C33.96 149.168 33.072 149.168 32.088 149.096C32.352 149.528 32.52 150.224 32.544 150.704C33.576 150.752 34.584 150.752 35.136 150.704C35.784 150.632 36.192 150.464 36.576 149.936C37.176 149.12 37.344 146.408 37.512 138.44C37.536 138.2 37.536 137.648 37.536 137.648H32.52ZM46.368 135.032C45.864 138.104 45.12 140.696 43.968 142.856C42.912 140.672 42.144 138.128 41.64 135.368C41.664 135.272 41.712 135.152 41.76 135.032H46.368ZM49.896 135.032V133.376H42.24C42.624 132.032 42.936 130.616 43.2 129.176L41.376 128.912C40.68 133.016 39.456 137 37.56 139.52C37.992 139.808 38.784 140.384 39.096 140.696C39.648 139.904 40.128 139.016 40.584 138.032C41.184 140.456 41.928 142.64 42.936 144.56C41.496 146.6 39.552 148.184 36.984 149.336C37.296 149.696 37.824 150.488 38.016 150.872C40.464 149.648 42.384 148.112 43.872 146.168C45.168 148.136 46.776 149.72 48.816 150.776C49.056 150.296 49.632 149.6 50.04 149.264C47.928 148.28 46.248 146.648 44.952 144.608C46.488 142.04 47.472 138.896 48.12 135.032H49.896ZM60.168 129.008C58.824 132.656 56.592 136.232 54.24 138.536C54.576 138.944 55.056 139.856 55.248 140.288C56.064 139.4 56.904 138.416 57.672 137.312V150.776H59.376V134.648C60.312 133.016 61.152 131.288 61.848 129.512L60.168 129.008ZM64.536 139.136C63.888 141.968 62.76 144.824 61.248 146.648C61.68 146.888 62.448 147.344 62.784 147.632C64.248 145.64 65.52 142.616 66.288 139.472L64.536 139.136ZM74.688 135.176C74.496 136.4 74.28 137.672 74.136 138.536L75.624 138.824C75.936 137.552 76.368 135.488 76.68 133.736L75.456 133.448L75.168 133.52H65.448C65.928 132.2 66.36 130.808 66.72 129.416L64.968 129.032C64.176 132.536 62.784 135.968 61.032 138.176C61.416 138.44 62.16 139.04 62.448 139.304C63.312 138.176 64.104 136.76 64.776 135.176H68.424V148.664C68.424 148.976 68.328 149.072 68.016 149.072C67.704 149.072 66.672 149.096 65.544 149.048C65.784 149.552 66.072 150.344 66.168 150.848C67.68 150.848 68.688 150.8 69.336 150.488C69.96 150.2 70.176 149.672 70.176 148.664V135.176H74.688ZM71.928 139.472C73.2 141.992 74.4 145.352 74.784 147.536L76.488 146.96C76.08 144.776 74.856 141.488 73.488 138.944L71.928 139.472ZM92.52 129.488C92.088 130.616 91.248 132.296 90.648 133.328L91.872 133.88C92.544 132.92 93.36 131.408 94.104 130.112L92.52 129.488ZM85.008 133.184C84.768 132.224 84.024 130.736 83.28 129.608L81.984 130.184C82.704 131.312 83.424 132.848 83.664 133.832L85.008 133.184ZM90.384 139.184H85.176L86.448 138.728C86.28 137.864 85.752 136.52 85.128 135.536L83.736 136.016C84.288 137.024 84.816 138.32 84.96 139.184H82.632V140.696H87.024V143.144H83.232V144.632H87.024V147.464C85.056 147.728 83.256 147.944 81.816 148.112L82.08 149.792C85.128 149.384 89.616 148.76 93.792 148.16L93.744 146.576L88.68 147.248V144.632H92.616V143.144H88.68V140.696H93.12V139.184H90.576C91.032 138.344 91.608 137.096 92.112 135.968L90.504 135.488C90.192 136.472 89.616 137.912 89.136 138.824L90.384 139.184ZM103.608 135.32H101.064V129.08H99.336V135.32H93.984V134H90.24V129.032H88.752V134H86.928V129.032H85.464V134H81.744V135.488H93.72V137H99.336V148.64C99.336 149.048 99.192 149.192 98.784 149.192C98.4 149.216 97.08 149.216 95.64 149.168C95.904 149.624 96.192 150.392 96.288 150.848C98.232 150.848 99.384 150.8 100.104 150.536C100.776 150.224 101.064 149.72 101.064 148.64V137H103.608V135.32ZM98.184 144.32C97.92 142.856 96.984 140.624 95.976 138.896L94.488 139.424C95.472 141.176 96.36 143.456 96.6 144.896L98.184 144.32ZM116.04 147.488H111.096V143H116.04V147.488ZM114.408 131.288C115.752 131 117.048 130.64 118.128 130.28L116.664 128.984C114.816 129.704 111.456 130.4 108.576 130.784C108.792 131.168 109.032 131.768 109.104 132.176C110.256 132.032 111.48 131.84 112.68 131.624V135.68H108.552V137.36H112.68V141.392H109.464V150.56H111.096V149.12H116.04V150.008H117.72V141.392H114.408V137.36H118.296V135.68H114.408V131.288ZM126.96 140.456H121.776V135.128H126.96V140.456ZM121.776 147.8V142.16H126.96V147.8H121.776ZM130.488 133.4H128.736V128.984H126.96V133.4H121.776V128.984H120.024V133.4H117.912V135.128H120.024V150.848H121.776V149.504H126.96V150.752H128.736V135.128H130.488V133.4ZM142.704 136.088C143.112 135.128 143.568 133.592 144 132.344L142.944 131.96C142.728 133.064 142.272 134.744 141.912 135.776L142.704 136.088ZM138.072 132.272C138.48 133.424 138.768 134.936 138.816 135.92L139.776 135.656C139.704 134.696 139.392 133.184 138.96 132.032L138.072 132.272ZM137.736 131.096H140.328V136.856H137.736V131.096ZM144.312 136.856H141.552V131.096H144.312V136.856ZM135.744 144.848C138.504 144.704 142.416 144.464 146.232 144.176L146.28 142.736C144.744 142.832 143.208 142.928 141.744 143V141.224H145.896V139.808H141.744V138.152H145.752V129.8H136.344V138.152H140.136V139.808H136.176V141.224H140.136V143.096C138.432 143.168 136.896 143.264 135.648 143.312L135.744 144.848ZM136.464 150.824C137.52 149.768 137.88 147.92 138.12 146.144L136.848 145.808C136.656 147.464 136.2 149.192 135.264 150.176L136.464 150.824ZM138.888 145.88C139.224 147.224 139.464 148.928 139.464 150.056L140.688 149.888C140.688 148.784 140.424 147.056 140.04 145.76L138.888 145.88ZM141.168 145.76C141.696 146.984 142.2 148.568 142.32 149.624L143.544 149.36C143.376 148.304 142.848 146.72 142.296 145.52L141.168 145.76ZM143.448 145.448C144.24 146.552 145.08 148.088 145.416 149.096L146.616 148.568C146.256 147.584 145.392 146.096 144.552 144.992L143.448 145.448ZM154.752 148.064H148.704V141.896H154.752V148.064ZM157.392 135.8V134.12H152.28V128.96H150.528V140.24H147.072V150.8H148.704V149.672H154.752V150.704H156.432V140.24H152.28V135.8H157.392ZM170.112 139.376H165.072V134.36H170.112V139.376ZM165.072 146.72V140.96H170.112V146.72H165.072ZM167.088 128.864C166.92 129.992 166.488 131.6 166.128 132.752H163.44V150.224H165.072V148.328H171.744V132.752H167.76C168.168 131.72 168.6 130.4 169.008 129.224L167.088 128.864ZM183.48 132.68H176.304C176.712 131.552 177.048 130.4 177.336 129.224L175.632 128.816C174.864 132.104 173.568 135.416 171.96 137.528C172.344 137.768 173.112 138.248 173.424 138.536C174.264 137.408 175.008 135.944 175.68 134.336H181.776C181.464 143.888 181.104 147.536 180.312 148.376C180.072 148.688 179.808 148.736 179.328 148.736C178.776 148.736 177.336 148.736 175.776 148.592C176.112 149.096 176.328 149.816 176.376 150.344C177.72 150.416 179.088 150.464 179.928 150.368C180.744 150.296 181.296 150.08 181.824 149.408C182.784 148.232 183.096 144.536 183.48 133.592V132.68ZM179.688 143.48C178.92 142.064 177.264 139.76 175.92 138.056L174.528 138.872C175.848 140.6 177.456 142.976 178.176 144.416L179.688 143.48ZM195.456 131.696C194.616 130.832 192.816 129.776 191.376 129.128L190.368 130.424C191.832 131.12 193.584 132.272 194.424 133.112L195.456 131.696ZM194.28 137.888C193.392 137.12 191.592 136.112 190.152 135.512L189.144 136.832C190.632 137.504 192.408 138.56 193.248 139.352L194.28 137.888ZM199.152 134.744H207.336V136.784H199.152V134.744ZM199.152 131.408H207.336V133.424H199.152V131.408ZM200.184 139.832C200.544 139.28 200.88 138.728 201.168 138.152H209.016V130.04H197.496V138.152H199.224C198.12 140.144 196.512 141.992 194.784 143.288L194.976 142.808L193.608 141.752C192.456 144.464 190.872 147.584 189.768 149.408L191.352 150.512C192.384 148.52 193.608 146 194.592 143.696C195 144.032 195.504 144.536 195.744 144.8C196.224 144.416 196.704 143.984 197.184 143.528V149.936H198.744V148.88H206.616V147.416H198.744V142.232H198.384C198.624 141.944 198.864 141.656 199.104 141.368H208.608C208.32 146.504 208.008 148.448 207.552 148.976C207.36 149.216 207.12 149.264 206.712 149.264C206.328 149.264 205.296 149.24 204.192 149.144C204.432 149.576 204.6 150.272 204.648 150.752C205.776 150.8 206.88 150.824 207.504 150.776C208.152 150.704 208.584 150.56 208.992 150.056C209.688 149.264 210.024 146.96 210.312 140.624C210.336 140.36 210.36 139.832 210.36 139.832H200.184ZM202.464 141.68C202.176 143.432 201.096 145.184 199.344 146.12C199.608 146.336 200.016 146.816 200.208 147.08C201.24 146.528 202.08 145.712 202.704 144.776C203.664 145.568 204.672 146.528 205.248 147.152L206.208 146.288C205.536 145.592 204.336 144.536 203.28 143.72C203.568 143.12 203.784 142.496 203.904 141.848L202.464 141.68ZM235.584 131.096L235.512 132.776H230.496C230.544 132.224 230.592 131.672 230.616 131.096H235.584ZM230.064 135.704C230.184 135.176 230.28 134.6 230.352 134.024H235.464C235.416 134.648 235.392 135.224 235.344 135.704H230.064ZM235.224 137C235.104 138.08 234.96 138.608 234.768 138.824C234.6 139.064 234.408 139.136 234.048 139.112C233.688 139.112 232.848 139.112 231.888 139.016C232.104 139.4 232.272 140 232.296 140.432C233.304 140.48 234.24 140.48 234.792 140.432C235.416 140.384 235.848 140.216 236.184 139.784C236.784 139.04 237.024 136.832 237.24 130.496C237.264 130.256 237.264 129.752 237.264 129.752H229.032C228.912 134.408 228.552 137.888 225.84 139.832C226.224 140.072 226.68 140.624 226.896 141.008C228.288 140.024 229.176 138.656 229.728 137H235.224ZM217.848 136.976C217.848 138.848 218.352 139.52 220.32 139.52H224.4C225.192 139.52 225.984 139.496 226.368 139.376C226.32 138.992 226.224 138.296 226.2 137.84C225.768 137.936 224.904 137.984 224.376 137.984H220.296C219.648 137.984 219.48 137.72 219.48 137V132.968H227.496V131.432H222.672V128.936H220.992V131.432H216.048V132.968H217.848V136.976ZM227.904 148.76V146.672H235.008V145.208H227.904V143.144H236.16V141.632H218.088V143.144H226.128V145.208H219.12V146.672H226.128V148.76H216.48V150.272H237.624V148.76H227.904Z" fill="white"/>
<path d="M143.045 163.325C141.895 163.325 140.99 163.71 140.33 164.48C139.67 165.25 139.34 166.305 139.34 167.645C139.34 168.975 139.645 170.03 140.255 170.81C140.875 171.58 141.8 171.965 143.03 171.965C143.5 171.965 143.945 171.925 144.365 171.845C144.785 171.765 145.195 171.665 145.595 171.545V172.715C145.195 172.865 144.78 172.975 144.35 173.045C143.93 173.115 143.425 173.15 142.835 173.15C141.745 173.15 140.835 172.925 140.105 172.475C139.375 172.025 138.825 171.385 138.455 170.555C138.095 169.725 137.915 168.75 137.915 167.63C137.915 166.55 138.11 165.6 138.5 164.78C138.9 163.95 139.485 163.305 140.255 162.845C141.025 162.375 141.96 162.14 143.06 162.14C144.19 162.14 145.175 162.35 146.015 162.77L145.475 163.91C145.145 163.76 144.775 163.625 144.365 163.505C143.965 163.385 143.525 163.325 143.045 163.325ZM157.923 173H156.573V168.005H151.083V173H149.733V162.29H151.083V166.82H156.573V162.29H157.923V173ZM171.996 167.63C171.996 168.74 171.806 169.71 171.426 170.54C171.056 171.36 170.506 172 169.776 172.46C169.046 172.92 168.141 173.15 167.061 173.15C165.951 173.15 165.026 172.92 164.286 172.46C163.556 172 163.011 171.355 162.651 170.525C162.291 169.695 162.111 168.725 162.111 167.615C162.111 166.515 162.291 165.555 162.651 164.735C163.011 163.915 163.556 163.275 164.286 162.815C165.026 162.355 165.956 162.125 167.076 162.125C168.146 162.125 169.046 162.355 169.776 162.815C170.506 163.265 171.056 163.905 171.426 164.735C171.806 165.555 171.996 166.52 171.996 167.63ZM163.536 167.63C163.536 168.98 163.821 170.045 164.391 170.825C164.961 171.595 165.851 171.98 167.061 171.98C168.281 171.98 169.171 171.595 169.731 170.825C170.291 170.045 170.571 168.98 170.571 167.63C170.571 166.28 170.291 165.225 169.731 164.465C169.171 163.695 168.286 163.31 167.076 163.31C165.866 163.31 164.971 163.695 164.391 164.465C163.821 165.225 163.536 166.28 163.536 167.63ZM180.759 163.325C179.609 163.325 178.704 163.71 178.044 164.48C177.384 165.25 177.054 166.305 177.054 167.645C177.054 168.975 177.359 170.03 177.969 170.81C178.589 171.58 179.514 171.965 180.744 171.965C181.214 171.965 181.659 171.925 182.079 171.845C182.499 171.765 182.909 171.665 183.309 171.545V172.715C182.909 172.865 182.494 172.975 182.064 173.045C181.644 173.115 181.139 173.15 180.549 173.15C179.459 173.15 178.549 172.925 177.819 172.475C177.089 172.025 176.539 171.385 176.169 170.555C175.809 169.725 175.629 168.75 175.629 167.63C175.629 166.55 175.824 165.6 176.214 164.78C176.614 163.95 177.199 163.305 177.969 162.845C178.739 162.375 179.674 162.14 180.774 162.14C181.904 162.14 182.889 162.35 183.729 162.77L183.189 163.91C182.859 163.76 182.489 163.625 182.079 163.505C181.679 163.385 181.239 163.325 180.759 163.325ZM196.499 167.63C196.499 168.74 196.309 169.71 195.929 170.54C195.559 171.36 195.009 172 194.279 172.46C193.549 172.92 192.644 173.15 191.564 173.15C190.454 173.15 189.529 172.92 188.789 172.46C188.059 172 187.514 171.355 187.154 170.525C186.794 169.695 186.614 168.725 186.614 167.615C186.614 166.515 186.794 165.555 187.154 164.735C187.514 163.915 188.059 163.275 188.789 162.815C189.529 162.355 190.459 162.125 191.579 162.125C192.649 162.125 193.549 162.355 194.279 162.815C195.009 163.265 195.559 163.905 195.929 164.735C196.309 165.555 196.499 166.52 196.499 167.63ZM188.039 167.63C188.039 168.98 188.324 170.045 188.894 170.825C189.464 171.595 190.354 171.98 191.564 171.98C192.784 171.98 193.674 171.595 194.234 170.825C194.794 170.045 195.074 168.98 195.074 167.63C195.074 166.28 194.794 165.225 194.234 164.465C193.674 163.695 192.789 163.31 191.579 163.31C190.369 163.31 189.474 163.695 188.894 164.465C188.324 165.225 188.039 166.28 188.039 167.63ZM200.673 173V162.29H202.023V171.8H206.703V173H200.673ZM217.059 173L215.769 169.685H211.524L210.249 173H208.884L213.069 162.245H214.284L218.454 173H217.059ZM214.164 165.245C214.134 165.165 214.084 165.02 214.014 164.81C213.944 164.6 213.874 164.385 213.804 164.165C213.744 163.935 213.694 163.76 213.654 163.64C213.584 163.95 213.504 164.255 213.414 164.555C213.324 164.845 213.249 165.075 213.189 165.245L211.974 168.485H215.364L214.164 165.245ZM224.054 173H222.704V163.475H219.359V162.29H227.384V163.475H224.054V173ZM236.784 173H230.799V162.29H236.784V163.475H232.149V166.82H236.514V167.99H232.149V171.815H236.784V173Z" fill="white"/>
<circle cx="132.5" cy="138.5" r="60" stroke="#C4C4C4"/>
</svg>
