<svg width="137" height="54" fill="none" xmlns="http://www.w3.org/2000/svg"><path fill="#FFFDFD" d="M0 0h137v54H0z"/><path d="M57.704 37.288c2.664 0 4.656-.912 6.36-2.616l-1.896-2.304c-1.104 1.032-2.592 1.824-4.32 1.824-3.312 0-5.496-2.256-5.496-6.12 0-3.816 2.16-6.144 5.472-6.144 1.56 0 2.832.648 3.912 1.56l1.92-2.304a8.548 8.548 0 0 0-5.904-2.304c-5.28 0-9.048 3.456-9.048 9.312 0 5.904 3.864 9.096 9 9.096ZM77.888 37h4.2l6.264-17.832h-3.6l-2.784 8.712c-.648 1.968-1.176 3.768-1.824 5.736h-.12c-.696-1.968-1.2-3.768-1.824-5.736l-2.808-8.712h-3.744L77.888 37Z" fill="#000"/><path fill="#fff" d="M70 25h22v5H70z"/><path d="M70.812 29 70 26.856h.376l.456 1.264a7.914 7.914 0 0 1 .132.404c.019.064.032.119.04.164h.016c.01-.045.025-.101.044-.168l.068-.208c.027-.072.05-.136.068-.192l.456-1.264h.376L71.216 29h-.404Zm3.371-2.18c.262 0 .455.057.58.172.126.115.188.297.188.548V29h-.256l-.068-.304h-.016a.982.982 0 0 1-.296.26.885.885 0 0 1-.424.084.756.756 0 0 1-.484-.152c-.128-.104-.192-.265-.192-.484a.56.56 0 0 1 .252-.492c.168-.117.427-.181.776-.192l.364-.012v-.128c0-.179-.038-.303-.116-.372a.475.475 0 0 0-.328-.104.98.98 0 0 0-.32.052c-.101.032-.196.07-.284.112l-.108-.264a1.54 1.54 0 0 1 .332-.128c.128-.037.262-.056.4-.056Zm.104 1.144c-.266.01-.452.053-.556.128a.37.37 0 0 0-.152.316c0 .12.036.208.108.264a.46.46 0 0 0 .284.084c.182 0 .332-.05.452-.148.12-.101.18-.256.18-.464v-.192l-.316.012Zm3.186 1.076a1.09 1.09 0 0 1-.508-.116.827.827 0 0 1-.348-.36c-.082-.163-.124-.37-.124-.624 0-.264.044-.479.132-.644a.84.84 0 0 1 .356-.364c.152-.077.324-.116.516-.116.11 0 .215.012.316.036.102.021.184.048.248.08l-.108.292a2.07 2.07 0 0 0-.224-.068.993.993 0 0 0-.24-.032c-.42 0-.632.27-.632.812 0 .259.051.457.152.596.104.136.258.204.46.204.118 0 .22-.012.308-.036.091-.024.174-.053.248-.088v.312a.947.947 0 0 1-.24.084c-.085.021-.189.032-.312.032Zm2.874-2.22c.262 0 .455.057.58.172.126.115.188.297.188.548V29h-.256l-.068-.304h-.016a.98.98 0 0 1-.296.26.885.885 0 0 1-.424.084.756.756 0 0 1-.484-.152c-.128-.104-.192-.265-.192-.484a.56.56 0 0 1 .252-.492c.168-.117.427-.181.776-.192l.364-.012v-.128c0-.179-.038-.303-.116-.372a.475.475 0 0 0-.328-.104.98.98 0 0 0-.32.052c-.101.032-.196.07-.284.112l-.108-.264a1.54 1.54 0 0 1 .332-.128c.128-.037.262-.056.4-.056Zm.104 1.144c-.266.01-.452.053-.556.128a.37.37 0 0 0-.152.316c0 .12.036.208.108.264a.46.46 0 0 0 .284.084c.182 0 .332-.05.452-.148.12-.101.18-.256.18-.464v-.192l-.316.012Zm3.043.788c.053 0 .108-.004.163-.012.056-.01.102-.021.136-.032v.268a.56.56 0 0 1-.16.044c-.069.013-.135.02-.2.02a.854.854 0 0 1-.312-.056.493.493 0 0 1-.227-.204c-.06-.096-.089-.23-.089-.404v-1.248h-.304v-.168l.308-.14.14-.456h.209v.492h.62v.272h-.62v1.24c0 .13.03.228.091.292a.338.338 0 0 0 .245.092Zm1.909-2.7c.053 0 .1.019.14.056.042.035.064.09.064.168 0 .075-.022.13-.064.168a.199.199 0 0 1-.14.056.209.209 0 0 1-.148-.056c-.04-.037-.06-.093-.06-.168 0-.077.02-.133.06-.168a.209.209 0 0 1 .148-.056Zm.172.804V29h-.352v-2.144h.352Zm3.543 1.068c0 .355-.09.63-.272.824-.179.195-.421.292-.728.292-.19 0-.359-.043-.508-.128a.926.926 0 0 1-.348-.38 1.329 1.329 0 0 1-.128-.608c0-.355.09-.628.268-.82.179-.192.421-.288.728-.288.195 0 .365.044.512.132.15.085.265.21.348.376.085.163.128.363.128.6Zm-1.62 0c0 .253.05.455.148.604.101.147.261.22.48.22.216 0 .375-.073.476-.22.101-.15.152-.35.152-.604 0-.253-.05-.452-.152-.596-.101-.144-.261-.216-.48-.216-.219 0-.377.072-.476.216-.099.144-.148.343-.148.596Zm4.21-1.108c.256 0 .45.063.58.188.13.123.196.323.196.6V29h-.348v-1.372c0-.344-.16-.516-.48-.516-.237 0-.401.067-.492.2-.09.133-.136.325-.136.576V29h-.352v-2.144h.284l.052.292h.02a.623.623 0 0 1 .288-.248.924.924 0 0 1 .388-.084Z" fill="#000"/></svg>